<svg xmlns="http://www.w3.org/2000/svg" width="107" height="103" fill="none" viewBox="0 0 107 103"><ellipse cx="56.794" cy="11.286" fill="#091E80" rx="10.796" ry="10.847"/><path fill="#091E80" d="M32.027 42.2059V70.6234H80.29V42.2059C59.9688 10.4731 39.6475 28.9839 32.027 42.2059Z"/><path fill="#091E80" d="M67.5892 46.9419V70.6232H106.962V52.6927C106.962 48.935 105.984 45.1773 103.666 42.2198C88.2305 22.5245 73.3936 36.6543 67.5892 46.9419Z"/><ellipse cx="19.961" cy="19.58" fill="#091E80" rx="10.796" ry="10.209"/><ellipse cx="87.91" cy="21.494" fill="#091E80" rx="10.161" ry="9.571"/><path fill="#091E80" d="M0.275146 51.4009V70.6234H40.9176V46.1528C25.9404 22.237 10.9631 31.4627 3.15629 41.7707C1.07907 44.5134 0.275146 47.9604 0.275146 51.4009Z"/><path fill="#091E80" d="M55.0465 42.5498C49.9494 52.1459 31.6833 49.547 26.3738 47.048C21.2768 85.4324 45.4895 102.026 55.0465 102.526C77.9834 98.927 85.3088 62.0419 82.1231 47.048C73.2032 54.2451 57.7012 47.048 55.0465 42.5498Z"/><path fill="#E6E6E6" d="M54.9054 47.6538C50.7145 55.6165 35.6957 53.46 31.3301 51.3863C27.1392 83.2373 47.0474 97.0062 54.9054 97.4209C73.7647 94.4349 79.7877 63.8281 77.1684 51.3863C69.8343 57.3584 57.0882 51.3863 54.9054 47.6538Z"/><line x2="10.806" y1="-1.5" y2="-1.5" stroke="#091E80" stroke-width="3" transform="matrix(0.807072 0.590453 -0.586826 0.809713 43.4579 75.7275)"/><line x2="20.843" y1="-1.5" y2="-1.5" stroke="#091E80" stroke-width="3" transform="matrix(0.678397 -0.734696 0.731499 0.681843 52.1795 82.1079)"/></svg>