<svg width="104" height="95" viewBox="0 0 104 95" fill="none" xmlns="http://www.w3.org/2000/svg">
<g filter="url(#filter0_d_1082_867)">
<path d="M47.1009 7.41091L4.58971 46.1651C1.00982 52.1482 5.08692 57.7234 7.57296 59.7632L35.9138 84.9194C43.0736 89.8147 49.3384 86.9591 51.5758 84.9194L92.5954 47.525C95.5786 44.8054 96.8217 38.6863 97.0703 35.9667V12.1702C97.0703 6.18714 90.6066 3.33153 87.3747 2.65162H62.0172C56.6473 2.1077 49.8356 5.59785 47.1009 7.41091Z" fill="#0C29B0"/>
<path d="M47.1009 7.41091L4.58971 46.1651C1.00982 52.1482 5.08692 57.7234 7.57296 59.7632L35.9138 84.9194C43.0736 89.8147 49.3384 86.9591 51.5758 84.9194L92.5954 47.525C95.5786 44.8054 96.8217 38.6863 97.0703 35.9667V12.1702C97.0703 6.18714 90.6066 3.33153 87.3747 2.65162H62.0172C56.6473 2.1077 49.8356 5.59785 47.1009 7.41091Z" stroke="#0C29B0"/>
</g>
<defs>
<filter id="filter0_d_1082_867" x="0.680546" y="0.0947266" width="102.89" height="94.0283" filterUnits="userSpaceOnUse" color-interpolation-filters="sRGB">
<feFlood flood-opacity="0" result="BackgroundImageFix"/>
<feColorMatrix in="SourceAlpha" type="matrix" values="0 0 0 0 0 0 0 0 0 0 0 0 0 0 0 0 0 0 127 0" result="hardAlpha"/>
<feOffset dx="2" dy="2"/>
<feGaussianBlur stdDeviation="2"/>
<feComposite in2="hardAlpha" operator="out"/>
<feColorMatrix type="matrix" values="0 0 0 0 0 0 0 0 0 0 0 0 0 0 0 0 0 0 0.1 0"/>
<feBlend mode="normal" in2="BackgroundImageFix" result="effect1_dropShadow_1082_867"/>
<feBlend mode="normal" in="SourceGraphic" in2="effect1_dropShadow_1082_867" result="shape"/>
</filter>
</defs>
</svg>
